<svg width="65" height="56" viewBox="0 0 65 56" fill="none" xmlns="http://www.w3.org/2000/svg">
<path d="M46.3858 0.279271L42.2426 7.43531H11.7314L15.8745 0.273438L46.3858 0.279271ZM52.7718 8.38542L48.6287 15.556L44.8057 8.94469L48.9488 1.76531L52.7718 8.38542ZM58.5133 18.3196L54.3701 25.4997L50.3422 18.515L54.4854 11.3444L58.5133 18.3196ZM54.6071 44.8095L50.6208 37.9079L54.3701 31.3972L58.3536 38.3133L54.6071 44.8095ZM48.9459 54.608L44.9654 47.7123L48.9131 40.8734L52.8965 47.7626L48.9459 54.608ZM39.2181 37.7628L43.1658 30.9269L47.2083 37.9079L43.2547 44.7533L39.2181 37.7628ZM37.5104 34.8039L33.6903 28.1808L37.6409 21.3442L41.4675 27.9672L37.5104 34.8039ZM39.3398 18.3852L43.0921 11.8745L46.9122 18.515L43.1599 25.0257L39.3398 18.3852ZM40.5233 10.395L36.806 16.8343H6.31879L10.0361 10.4008L40.5233 10.395ZM35.099 19.794L31.1301 26.7006H0.618896L4.61108 19.794H35.099ZM19.6866 29.6603L34.9357 56.0817H26.9455L11.6957 29.6603H19.6866ZM38.3482 56.0817L23.0984 29.6603H31.1301L36.0163 38.1267C36.0812 38.4606 36.2416 38.7384 36.4983 38.9616L41.757 48.0645C41.819 48.3977 41.978 48.6748 42.2339 48.8965L46.377 56.0875L38.3482 56.0817ZM48.9131 34.949L44.8793 27.9672L48.6316 21.4572L52.6624 28.4411L48.9131 34.949ZM0.618896 29.6603H8.28098L23.5337 56.0817H15.8774L0.618896 29.6603ZM64.2044 28.1808L60.0613 35.3544L56.0866 28.4528L60.2297 21.2793L64.2044 28.1808Z" fill="#3E8AB8"/>
</svg>
