<svg width="95" height="130" viewBox="0 0 95 130" fill="none" xmlns="http://www.w3.org/2000/svg">
<mask id="mask0_648_2084" style="mask-type:luminance" maskUnits="userSpaceOnUse" x="0" y="0" width="95" height="83">
<path d="M0 0H95V82.7691H0V0Z" fill="white"/>
</mask>
<g mask="url(#mask0_648_2084)">
<path d="M68.0586 0.201905L61.8985 10.8052H16.5308L22.6909 0.193909L68.0586 0.201905ZM77.5546 12.2125L71.3945 22.8398L65.7077 13.0422L71.8679 2.40292L77.5546 12.2125ZM86.0898 26.934L79.9296 37.5732L73.942 27.2239L80.1021 16.5986L86.0898 26.934ZM80.2827 66.1885L74.3552 55.961L79.9296 46.3133L85.8531 56.5628L80.2827 66.1885ZM71.8638 80.708L65.9464 70.4906L71.8157 60.3551L77.7392 70.5645L71.8638 80.708ZM57.4012 55.7471L63.2705 45.6157L69.2822 55.961L63.4029 66.1045L57.4012 55.7471ZM54.8617 51.3611L49.181 41.5475L55.0563 31.416L60.7451 41.2316L54.8617 51.3611ZM57.5817 27.0319L63.1602 17.3842L68.8409 27.2239L63.2625 36.8716L57.5817 27.0319ZM59.3409 15.1912L53.8146 24.733H8.48304L14.0093 15.1992L59.3409 15.1912ZM51.2752 29.119L45.3738 39.3544H0.00805664L5.94355 29.119H51.2752ZM28.3596 43.7405L51.0345 82.891H39.1534L16.4786 43.7405H28.3596ZM56.1074 82.891L33.4326 43.7405H45.3738L52.6392 56.2869C52.7355 56.7807 52.9762 57.1925 53.3573 57.5223L61.1763 71.0123C61.2686 71.5061 61.5033 71.9159 61.8844 72.2438L68.0446 82.901L56.1074 82.891ZM71.8157 51.577L65.818 41.2316L71.3985 31.5839L77.3901 41.9333L71.8157 51.577ZM0.00805664 43.7405H11.3996L34.0785 82.891H22.6949L0.00805664 43.7405ZM94.5527 41.5475L88.3926 52.1767L82.4831 41.9513L88.6433 31.32L94.5527 41.5475Z" fill="#3E8AB8"/>
</g>
<path d="M15.7725 102.076C15.7725 102.076 15.7805 102.22 15.7965 102.508C15.8126 102.792 15.8206 103.136 15.8206 103.54C15.8206 105.039 15.7825 106.383 15.7083 107.57C15.632 108.76 15.5578 109.695 15.4836 110.377C15.4074 111.06 15.3713 111.4 15.3713 111.4C14.9641 111.55 14.4185 111.68 13.7344 111.792C13.0484 111.9 12.3504 111.98 11.6403 112.04C10.9282 112.098 10.3204 112.128 9.81891 112.128C9.32545 112.128 8.71565 112.098 7.98952 112.04C7.26137 111.98 6.55529 111.9 5.87127 111.792C5.18525 111.68 4.63964 111.55 4.23445 111.4C4.23445 111.4 4.19634 111.056 4.12212 110.369C4.04589 109.677 3.96967 108.736 3.88943 107.546C3.81321 106.359 3.7771 105.023 3.7771 103.54C3.7771 102.043 3.81321 100.699 3.88943 99.5096C3.96967 98.3222 4.04589 97.3866 4.12212 96.7029C4.19634 96.0212 4.23445 95.6793 4.23445 95.6793C4.63964 95.5154 5.18525 95.3795 5.87127 95.2715C6.55529 95.1596 7.26137 95.0756 7.98952 95.0156C8.71565 94.9517 9.32545 94.9197 9.81891 94.9197C10.3204 94.9197 10.9282 94.9517 11.6403 95.0156C12.3504 95.0756 13.0484 95.1596 13.7344 95.2715C14.4185 95.3795 14.9641 95.5154 15.3713 95.6793C15.3713 95.6793 15.3953 95.9172 15.4435 96.391C15.4956 96.8608 15.5558 97.5085 15.62 98.3342C15.3312 98.2662 14.8658 98.1822 14.2239 98.0863C13.582 97.9863 12.8679 97.8904 12.0816 97.7984C11.2953 97.7024 10.541 97.6545 9.81891 97.6545C9.4438 97.6545 9.04864 97.6764 8.63141 97.7184C8.21819 97.7624 7.86515 97.8044 7.57229 97.8464C7.27742 97.8844 7.13098 97.9023 7.13098 97.9023C7.13098 97.9023 7.11093 98.1542 7.07482 98.654C7.04272 99.1498 7.00662 99.8255 6.97051 100.677C6.93842 101.525 6.92237 102.48 6.92237 103.54C6.92237 104.585 6.93842 105.535 6.97051 106.387C7.00662 107.234 7.04272 107.912 7.07482 108.418C7.11093 108.925 7.13098 109.177 7.13098 109.177C7.13098 109.177 7.27742 109.199 7.57229 109.241C7.86515 109.285 8.21819 109.327 8.63141 109.369C9.04864 109.407 9.4438 109.425 9.81891 109.425C10.188 109.425 10.5751 109.407 10.9823 109.369C11.3875 109.327 11.7386 109.285 12.0334 109.241C12.3263 109.199 12.4747 109.177 12.4747 109.177C12.4747 109.177 12.4988 108.758 12.5469 107.914C12.5991 107.072 12.6352 106.035 12.6513 104.803H9.93926C9.97537 104.367 10.0536 103.906 10.1719 103.42C10.2883 102.93 10.4227 102.482 10.5731 102.076H15.7725Z" fill="#313234"/>
<path d="M22.1354 109.177H30.5522C30.504 109.631 30.4178 110.097 30.2954 110.577C30.1771 111.057 30.0427 111.5 29.8942 111.904H19.0142V95.0717H22.1354V109.177Z" fill="#313234"/>
<path d="M44.9295 95.6793C44.9295 95.6793 44.9656 96.0212 45.0418 96.7029C45.1161 97.3866 45.1903 98.3222 45.2665 99.5096C45.3407 100.699 45.3788 102.043 45.3788 103.54C45.3788 105.039 45.3407 106.383 45.2665 107.57C45.1903 108.76 45.1161 109.695 45.0418 110.377C44.9656 111.06 44.9295 111.4 44.9295 111.4C44.5223 111.55 43.9767 111.68 43.2927 111.792C42.6067 111.9 41.9086 111.98 41.1985 112.04C40.4864 112.098 39.8786 112.128 39.3771 112.128C38.8837 112.128 38.2739 112.098 37.5478 112.04C36.8196 111.98 36.1135 111.9 35.4295 111.792C34.7435 111.68 34.1979 111.55 33.7927 111.4C33.7927 111.4 33.7566 111.056 33.6884 110.369C33.6242 109.677 33.554 108.736 33.4798 107.546C33.4035 106.359 33.3674 105.023 33.3674 103.54C33.3674 102.043 33.4035 100.699 33.4798 99.5096C33.554 98.3222 33.6242 97.3866 33.6884 96.7029C33.7566 96.0212 33.7927 95.6793 33.7927 95.6793C34.1979 95.5154 34.7435 95.3795 35.4295 95.2715C36.1135 95.1596 36.8196 95.0756 37.5478 95.0156C38.2739 94.9517 38.8837 94.9197 39.3771 94.9197C39.8786 94.9197 40.4864 94.9517 41.1985 95.0156C41.9086 95.0756 42.6067 95.1596 43.2927 95.2715C43.9767 95.3795 44.5223 95.5154 44.9295 95.6793ZM42.033 109.177C42.033 109.177 42.049 108.921 42.0811 108.41C42.1172 107.894 42.1533 107.21 42.1854 106.363C42.2215 105.511 42.2416 104.569 42.2416 103.54C42.2416 102.512 42.2215 101.573 42.1854 100.725C42.1533 99.8735 42.1172 99.1898 42.0811 98.678C42.049 98.1622 42.033 97.9023 42.033 97.9023C42.033 97.9023 41.8885 97.8844 41.5997 97.8464C41.3149 97.8044 40.9658 97.7624 40.5486 97.7184C40.1354 97.6764 39.7462 97.6545 39.3771 97.6545C39.002 97.6545 38.6069 97.6764 38.1896 97.7184C37.7764 97.7624 37.4234 97.8044 37.1305 97.8464C36.8357 97.8844 36.6892 97.9023 36.6892 97.9023C36.6892 97.9023 36.6752 98.1542 36.6491 98.654C36.621 99.1498 36.5889 99.8255 36.5528 100.677C36.5207 101.525 36.5047 102.48 36.5047 103.54C36.5047 104.585 36.5207 105.535 36.5528 106.387C36.5889 107.234 36.621 107.912 36.6491 108.418C36.6752 108.925 36.6892 109.177 36.6892 109.177C36.6892 109.177 36.8357 109.199 37.1305 109.241C37.4234 109.285 37.7764 109.327 38.1896 109.369C38.6069 109.407 39.002 109.425 39.3771 109.425C39.7462 109.425 40.1354 109.407 40.5486 109.369C40.9658 109.327 41.3149 109.285 41.5997 109.241C41.8885 109.199 42.033 109.177 42.033 109.177Z" fill="#313234"/>
<path d="M60.7923 99.9015C60.7923 100.777 60.7622 101.485 60.704 102.029C60.6438 102.568 60.5917 102.978 60.5435 103.26C60.5917 103.596 60.6438 104.066 60.704 104.667C60.7622 105.265 60.7923 106.001 60.7923 106.874C60.7923 108.41 60.7141 109.505 60.5596 110.161C60.4092 110.817 60.3349 111.144 60.3349 111.144C59.9338 111.3 59.3902 111.436 58.7061 111.552C58.0201 111.67 57.3221 111.758 56.612 111.816C55.8999 111.876 55.2901 111.904 54.7826 111.904H48.5723V95.0717H54.7826C55.2901 95.0717 55.8999 95.1036 56.612 95.1676C57.3221 95.2276 58.0201 95.3115 58.7061 95.4235C59.3902 95.5314 59.9338 95.6674 60.3349 95.8313C60.3349 95.8313 60.371 95.9593 60.4473 96.2151C60.5275 96.467 60.6037 96.8868 60.68 97.4786C60.7542 98.0663 60.7923 98.874 60.7923 99.9015ZM54.7826 97.8064H51.7175V101.749H54.7826C55.1396 101.749 55.5609 101.765 56.0423 101.797C56.5237 101.829 57.0091 101.873 57.5026 101.925C57.5347 101.669 57.5668 101.373 57.5989 101.037C57.635 100.701 57.655 100.323 57.655 99.9015C57.655 99.0759 57.6189 98.5621 57.5507 98.3582C57.4805 98.1563 57.4464 98.0543 57.4464 98.0543C57.4464 98.0543 57.302 98.0363 57.0131 97.9983C56.7283 97.9564 56.3793 97.9144 55.962 97.8704C55.5488 97.8284 55.1557 97.8064 54.7826 97.8064ZM57.4464 108.921C57.4464 108.921 57.4805 108.784 57.5507 108.506C57.6189 108.23 57.655 107.686 57.655 106.874C57.655 106.049 57.6189 105.487 57.5507 105.187C57.4805 104.883 57.4464 104.731 57.4464 104.731C57.4464 104.731 57.302 104.711 57.0131 104.667C56.7283 104.625 56.3793 104.583 55.962 104.539C55.5488 104.497 55.1557 104.475 54.7826 104.475H51.7175V109.177H54.7826C55.1557 109.177 55.5488 109.157 55.962 109.113C56.3793 109.071 56.7283 109.029 57.0131 108.985C57.302 108.943 57.4464 108.921 57.4464 108.921Z" fill="#313234"/>
<path d="M74.0816 111.904L73.0385 107.938H67.6386L66.6276 111.904H63.4021L66.6276 100.005C66.8623 99.0939 67.1271 98.2223 67.4219 97.3906C67.7148 96.555 68.0338 95.7734 68.3768 95.0477C68.6115 95.0157 68.9103 94.9977 69.2754 94.9917C69.6385 94.9817 69.9975 94.9837 70.3506 94.9997C70.7036 94.9837 71.0567 94.9817 71.4097 94.9917C71.7668 94.9977 72.0757 95.0157 72.3324 95.0477C72.6694 95.7734 72.9843 96.555 73.2792 97.3906C73.5721 98.2223 73.8409 99.0939 74.0816 100.005L77.2991 111.904H74.0816ZM68.3447 105.235H72.3565L71.161 100.581C71.0426 100.113 70.9122 99.6516 70.7678 99.1978C70.6234 98.74 70.483 98.3002 70.3506 97.8784C70.0818 98.706 69.813 99.6056 69.5402 100.581L68.3447 105.235Z" fill="#313234"/>
<path d="M83.077 109.177H91.4938C91.4457 109.631 91.3594 110.097 91.2371 110.577C91.1187 111.057 90.9843 111.5 90.8359 111.904H79.9558V95.0717H83.077V109.177Z" fill="#313234"/>
<path d="M27.2613 120.7H24.8542C24.8 120.7 24.7439 120.7 24.6857 120.7C24.6255 120.7 24.5734 120.696 24.5252 120.684C24.4771 120.668 24.437 120.648 24.4049 120.62C24.3768 120.588 24.3647 120.546 24.3647 120.492C24.3647 120.424 24.3808 120.372 24.4129 120.34C24.445 120.308 24.4851 120.288 24.5332 120.276C24.5814 120.26 24.6315 120.252 24.6857 120.252C24.7439 120.252 24.8 120.252 24.8542 120.252H30.2381C30.3063 120.252 30.3704 120.252 30.4306 120.252C30.4888 120.252 30.5389 120.26 30.5831 120.276C30.6252 120.288 30.6593 120.308 30.6874 120.34C30.7135 120.372 30.7275 120.418 30.7275 120.476C30.7275 120.54 30.7135 120.588 30.6874 120.62C30.6593 120.648 30.6252 120.668 30.5831 120.684C30.5389 120.696 30.4888 120.7 30.4306 120.7C30.3704 120.7 30.3063 120.7 30.2381 120.7H27.839V127.297H30.2381C30.3063 127.297 30.3704 127.297 30.4306 127.297C30.4888 127.297 30.5389 127.305 30.5831 127.321C30.6252 127.333 30.6593 127.353 30.6874 127.385C30.7135 127.413 30.7275 127.455 30.7275 127.513C30.7275 127.577 30.7135 127.625 30.6874 127.657C30.6593 127.685 30.6252 127.705 30.5831 127.721C30.5389 127.733 30.4888 127.737 30.4306 127.737C30.3704 127.737 30.3063 127.737 30.2381 127.737H24.8542C24.8 127.737 24.7439 127.737 24.6857 127.737C24.6315 127.737 24.5814 127.733 24.5332 127.721C24.4851 127.705 24.445 127.681 24.4129 127.649C24.3808 127.617 24.3647 127.569 24.3647 127.505C24.3647 127.453 24.3768 127.413 24.4049 127.385C24.437 127.353 24.4771 127.333 24.5252 127.321C24.5734 127.305 24.6255 127.297 24.6857 127.297C24.7439 127.297 24.8 127.297 24.8542 127.297H27.2613V120.7Z" fill="#313234"/>
<path d="M40.4729 124.45C40.4729 124.143 40.4448 123.887 40.3926 123.683C40.3445 123.475 40.2663 123.311 40.16 123.187C40.0577 123.065 39.9273 122.979 39.7668 122.931C39.6103 122.879 39.4238 122.851 39.2051 122.851C38.6315 122.851 38.1561 122.969 37.7769 123.203C37.3958 123.439 37.0809 123.759 36.8301 124.163V127.385C36.8301 127.465 36.8221 127.529 36.8061 127.577C36.79 127.621 36.768 127.655 36.7419 127.681C36.7138 127.703 36.6857 127.719 36.6536 127.729C36.6255 127.735 36.5995 127.737 36.5734 127.737C36.5413 127.737 36.5092 127.735 36.4771 127.729C36.445 127.725 36.4129 127.711 36.3808 127.689C36.3527 127.669 36.3327 127.633 36.3166 127.585C36.3006 127.537 36.2926 127.471 36.2926 127.385V124.163C36.2926 123.759 36.1963 123.439 36.0037 123.203C35.8111 122.969 35.5022 122.851 35.081 122.851C34.7641 122.851 34.4672 122.889 34.1904 122.963C33.9176 123.033 33.6728 123.129 33.4602 123.251C33.2516 123.375 33.0751 123.519 32.9307 123.683C32.7862 123.843 32.6859 124.015 32.6338 124.195V127.385C32.6338 127.545 32.6057 127.645 32.5535 127.681C32.4994 127.719 32.4452 127.737 32.3931 127.737C32.361 127.737 32.3249 127.735 32.2888 127.729C32.2567 127.725 32.2246 127.711 32.1925 127.689C32.1644 127.669 32.1403 127.633 32.1203 127.585C32.1042 127.537 32.0962 127.471 32.0962 127.385V122.923C32.0962 122.779 32.1223 122.689 32.1764 122.651C32.2346 122.615 32.2988 122.595 32.369 122.595C32.4432 122.595 32.5054 122.615 32.5535 122.651C32.6017 122.689 32.6258 122.779 32.6258 122.923V123.747C32.694 123.545 32.8063 123.363 32.9627 123.203C33.1172 123.043 33.3017 122.911 33.5164 122.803C33.729 122.691 33.9677 122.607 34.2305 122.547C34.4973 122.489 34.7781 122.459 35.073 122.459C35.414 122.459 35.6908 122.505 35.8994 122.595C36.108 122.687 36.2685 122.799 36.3808 122.931C36.4972 123.065 36.5814 123.203 36.6296 123.347C36.6777 123.491 36.7118 123.615 36.7339 123.715C36.8141 123.577 36.9224 123.433 37.0628 123.283C37.2012 123.135 37.3697 122.999 37.5683 122.875C37.7649 122.753 37.9976 122.655 38.2664 122.579C38.5392 122.499 38.8481 122.459 39.1971 122.459C39.8169 122.459 40.2743 122.617 40.5692 122.931C40.862 123.247 41.0105 123.753 41.0105 124.45V127.385C41.0105 127.465 41.0024 127.529 40.9864 127.577C40.9703 127.621 40.9483 127.655 40.9222 127.681C40.9001 127.703 40.8741 127.719 40.842 127.729C40.8099 127.735 40.7798 127.737 40.7537 127.737C40.7156 127.737 40.6815 127.735 40.6494 127.729C40.6173 127.725 40.5872 127.711 40.5611 127.689C40.5331 127.669 40.513 127.633 40.497 127.585C40.4809 127.537 40.4729 127.471 40.4729 127.385V124.45Z" fill="#313234"/>
<path d="M46.6467 122.459C47.0479 122.459 47.427 122.503 47.7861 122.587C48.1491 122.667 48.4681 122.809 48.7409 123.011C49.0137 123.215 49.2303 123.483 49.3908 123.819C49.5513 124.155 49.6315 124.574 49.6315 125.074C49.6315 125.576 49.5633 126.002 49.4309 126.354C49.2965 126.701 49.1019 126.981 48.8452 127.193C48.5924 127.407 48.2835 127.561 47.9144 127.657C47.5453 127.753 47.1221 127.801 46.6467 127.801C46.2816 127.801 45.9446 127.779 45.6357 127.737C45.3308 127.695 45.052 127.639 44.8013 127.569C44.5545 127.501 44.3319 127.423 44.1353 127.337C43.9367 127.253 43.7622 127.169 43.6138 127.089L43.5977 129.528C43.5977 129.586 43.5937 129.642 43.5897 129.696C43.5897 129.754 43.5776 129.804 43.5576 129.848C43.5415 129.896 43.5175 129.932 43.4854 129.96C43.4533 129.986 43.4011 130 43.3329 130C43.2687 130 43.2166 129.984 43.1805 129.952C43.1484 129.924 43.1203 129.888 43.1002 129.84C43.0842 129.792 43.0762 129.738 43.0762 129.68C43.0762 129.62 43.0762 129.556 43.0762 129.488V122.923C43.0762 122.779 43.1022 122.689 43.1564 122.651C43.2086 122.615 43.2647 122.595 43.3249 122.595C43.4051 122.595 43.4653 122.615 43.5094 122.651C43.5576 122.689 43.5817 122.779 43.5817 122.923V123.811C43.6338 123.619 43.7261 123.455 43.8545 123.315C43.9828 123.177 44.1353 123.057 44.3118 122.955C44.4883 122.855 44.6769 122.771 44.8815 122.707C45.0841 122.639 45.2907 122.587 45.4993 122.555C45.7079 122.519 45.9105 122.495 46.1091 122.483C46.3057 122.467 46.4862 122.459 46.6467 122.459ZM46.6467 122.851C46.3739 122.857 46.077 122.881 45.7561 122.923C45.4391 122.961 45.1342 123.031 44.8414 123.131C44.5525 123.227 44.2958 123.363 44.0711 123.539C43.8464 123.711 43.694 123.937 43.6138 124.219V126.793C43.8063 126.869 44.0109 126.943 44.2316 127.017C44.4562 127.093 44.6929 127.159 44.9457 127.217C45.1964 127.271 45.4632 127.317 45.748 127.353C46.0309 127.391 46.3298 127.409 46.6467 127.409C47.074 127.409 47.441 127.365 47.7459 127.273C48.0548 127.183 48.3096 127.045 48.5082 126.857C48.7108 126.665 48.8572 126.424 48.9495 126.13C49.0458 125.838 49.0939 125.486 49.0939 125.074C49.0939 124.654 49.0297 124.303 48.9013 124.019C48.773 123.731 48.5964 123.503 48.3718 123.331C48.1511 123.161 47.8924 123.039 47.5935 122.963C47.2986 122.889 46.9837 122.851 46.6467 122.851Z" fill="#313234"/>
<path d="M51.8989 126.234C51.8989 126.448 51.9511 126.629 52.0594 126.777C52.1717 126.927 52.3262 127.049 52.5248 127.145C52.7213 127.237 52.954 127.303 53.2228 127.345C53.4956 127.389 53.7945 127.409 54.1215 127.409C54.5166 127.409 54.8677 127.383 55.1726 127.329C55.4775 127.271 55.7442 127.199 55.9749 127.113C56.2036 127.029 56.3962 126.935 56.5526 126.833C56.7071 126.733 56.8375 126.637 56.9458 126.546V125.194C56.4965 125.13 56.0311 125.072 55.5497 125.018C55.0683 124.96 54.5828 124.93 54.0974 124.93C53.7484 124.93 53.4395 124.952 53.1666 124.994C52.8938 125.032 52.6632 125.102 52.4766 125.202C52.2881 125.298 52.1436 125.432 52.0433 125.602C51.9471 125.768 51.8989 125.978 51.8989 126.234ZM54.7634 122.851C54.3301 122.851 53.961 122.865 53.6561 122.891C53.3512 122.913 53.0884 122.943 52.8698 122.979C52.6491 123.011 52.4646 123.049 52.3161 123.091C52.1717 123.129 52.0433 123.169 51.931 123.211C51.8768 123.211 51.8267 123.185 51.7786 123.131C51.7344 123.079 51.7144 123.019 51.7144 122.955C51.7144 122.897 51.7404 122.855 51.7946 122.827C51.8307 122.811 51.915 122.785 52.0433 122.747C52.1757 122.705 52.3643 122.663 52.605 122.619C52.8457 122.577 53.1446 122.539 53.5036 122.507C53.8607 122.475 54.2839 122.459 54.7714 122.459C54.996 122.459 55.2207 122.475 55.4454 122.507C55.67 122.535 55.8806 122.585 56.0792 122.659C56.2818 122.735 56.4684 122.841 56.6409 122.979C56.8174 123.113 56.9658 123.287 57.0902 123.499C57.2126 123.713 57.3089 123.971 57.3791 124.275C57.4533 124.574 57.4914 124.926 57.4914 125.33V127.265C57.4914 127.319 57.4874 127.373 57.4834 127.425C57.4774 127.479 57.4633 127.529 57.4433 127.577C57.4272 127.625 57.3991 127.665 57.363 127.697C57.3249 127.725 57.2748 127.737 57.2106 127.737C57.1083 127.737 57.0381 127.693 57.002 127.601C56.9638 127.505 56.9458 127.385 56.9458 127.241V126.777C56.8535 126.889 56.7372 127.007 56.5927 127.129C56.4483 127.247 56.2658 127.357 56.0471 127.457C55.8265 127.559 55.5657 127.641 55.2608 127.705C54.9559 127.769 54.5949 127.801 54.1776 127.801C53.7865 127.801 53.4174 127.773 53.0704 127.721C52.7274 127.663 52.4285 127.573 52.1717 127.449C51.919 127.321 51.7224 127.159 51.578 126.961C51.4335 126.759 51.3613 126.518 51.3613 126.234C51.3613 125.91 51.4275 125.638 51.5619 125.418C51.7003 125.2 51.8909 125.026 52.1316 124.898C52.3723 124.766 52.6551 124.672 52.9821 124.618C53.3071 124.56 53.6601 124.53 54.0412 124.53C54.3241 124.53 54.6069 124.542 54.8917 124.562C55.1746 124.584 55.4454 124.614 55.7021 124.65C55.9589 124.688 56.1936 124.736 56.4082 124.794C56.6208 124.848 56.8014 124.914 56.9458 124.994C56.9458 124.536 56.8836 124.169 56.7612 123.891C56.6369 123.615 56.4744 123.399 56.2718 123.243C56.0732 123.089 55.8425 122.985 55.5818 122.931C55.319 122.879 55.0462 122.851 54.7634 122.851Z" fill="#313234"/>
<path d="M62.7059 122.851C62.1924 122.851 61.7531 122.895 61.39 122.979C61.025 123.065 60.7261 123.201 60.4914 123.387C60.2607 123.575 60.0922 123.815 59.9859 124.107C59.8776 124.394 59.8254 124.744 59.8254 125.154C59.8254 125.566 59.8836 125.914 60.0019 126.202C60.1183 126.486 60.2988 126.717 60.5395 126.897C60.7802 127.079 61.0791 127.209 61.4382 127.289C61.8013 127.369 62.2245 127.409 62.7059 127.409C62.9185 127.409 63.1352 127.393 63.3558 127.361C63.5805 127.329 63.7931 127.289 63.9977 127.241C64.2003 127.193 64.3849 127.143 64.5514 127.089C64.7219 127.031 64.8643 126.975 64.9766 126.921C65.0408 126.895 65.0849 126.881 65.113 126.881C65.1712 126.881 65.2173 126.901 65.2494 126.937C65.2855 126.969 65.3056 127.009 65.3056 127.057C65.3056 127.095 65.2915 127.133 65.2655 127.169C65.2434 127.207 65.2093 127.239 65.1612 127.265C64.764 127.469 64.3548 127.609 63.9335 127.689C63.5103 127.763 63.1011 127.801 62.7059 127.801C62.1964 127.801 61.731 127.761 61.3098 127.681C60.8926 127.601 60.5335 127.463 60.2346 127.265C59.9337 127.063 59.7011 126.791 59.5366 126.45C59.3701 126.11 59.2878 125.678 59.2878 125.154C59.2878 124.632 59.3621 124.201 59.5125 123.859C59.667 123.513 59.8896 123.235 60.1785 123.027C60.4713 122.819 60.8304 122.673 61.2536 122.587C61.6809 122.503 62.1643 122.459 62.7059 122.459C63.1011 122.459 63.5103 122.499 63.9335 122.579C64.3548 122.655 64.764 122.793 65.1612 122.995C65.2093 123.023 65.2434 123.055 65.2655 123.091C65.2915 123.129 65.3056 123.167 65.3056 123.203C65.3056 123.251 65.2855 123.295 65.2494 123.331C65.2173 123.363 65.1712 123.379 65.113 123.379C65.0849 123.379 65.0408 123.369 64.9766 123.347C64.8643 123.295 64.7219 123.239 64.5514 123.179C64.3849 123.121 64.2003 123.067 63.9977 123.019C63.7931 122.971 63.5805 122.931 63.3558 122.899C63.1352 122.867 62.9185 122.851 62.7059 122.851Z" fill="#313234"/>
<path d="M70.1228 122.691C70.191 122.691 70.2432 122.711 70.2753 122.747C70.3114 122.779 70.3315 122.815 70.3315 122.851C70.3315 122.895 70.3114 122.935 70.2753 122.971C70.2432 123.003 70.191 123.019 70.1228 123.019H67.8923V125.866C67.8923 126.192 67.9244 126.456 67.9885 126.657C68.0567 126.861 68.149 127.017 68.2613 127.129C68.3777 127.241 68.5141 127.317 68.6706 127.353C68.825 127.391 68.9875 127.409 69.16 127.409C69.3786 127.409 69.5893 127.373 69.7939 127.297C70.0025 127.217 70.2392 127.105 70.508 126.961C70.5601 126.935 70.6143 126.921 70.6684 126.921C70.7206 126.921 70.7647 126.941 70.7968 126.977C70.8329 127.009 70.853 127.049 70.853 127.097C70.853 127.189 70.8048 127.261 70.7086 127.313C70.516 127.415 70.3475 127.497 70.2031 127.561C70.0586 127.625 69.9243 127.677 69.8019 127.713C69.6775 127.745 69.5572 127.765 69.4408 127.777C69.3225 127.793 69.2001 127.801 69.0717 127.801C68.825 127.801 68.5983 127.769 68.3897 127.705C68.1811 127.637 67.9986 127.527 67.8441 127.377C67.6877 127.229 67.5653 127.031 67.475 126.785C67.3888 126.536 67.3467 126.23 67.3467 125.866V123.019H66.7529C66.6927 123.019 66.6486 123.003 66.6165 122.971C66.5844 122.935 66.5684 122.895 66.5684 122.851C66.5684 122.815 66.5844 122.779 66.6165 122.747C66.6486 122.711 66.6927 122.691 66.7529 122.691H67.3467V121.02C67.3467 120.876 67.3747 120.786 67.4349 120.748C67.4931 120.712 67.5553 120.692 67.6195 120.692C67.6937 120.692 67.7579 120.712 67.812 120.748C67.8642 120.786 67.8923 120.876 67.8923 121.02V122.691H70.1228Z" fill="#313234"/>
</svg>
