<svg width="55" height="18" viewBox="0 0 55 18" fill="none" xmlns="http://www.w3.org/2000/svg">
<path d="M28.1104 4.64653C28.9604 0.636636 33.7205 -0.433462 37.2305 0.146532C37.7307 0.226582 38.9095 0.447135 39.2695 0.66704L38.7402 4.34673C38.3703 4.25674 37.8701 3.94684 36.8604 3.71684C35.7604 3.46684 33.5101 3.34696 32.8301 4.33696C32.2303 5.21681 32.8005 5.61617 33.2305 5.99614C34.3005 6.91611 35.7904 7.25702 37.1104 8.377C37.3701 8.59683 37.4906 8.76701 37.7305 9.00688C38.0903 9.35695 38.4301 10.0366 38.5801 10.6963V10.6866C38.9101 12.1366 38.4495 13.7065 37.7695 14.6465C35.5396 17.7462 30.5604 17.8766 27.1904 16.8868C26.8704 16.7868 26.5097 16.6267 26.2197 16.5567L26.8496 12.7666C28.1295 13.3266 29.1598 13.7769 30.7695 13.877C31.3995 13.917 32.4505 13.8763 32.9805 13.6563C33.5004 13.4362 34.1396 12.9559 34.1396 12.2461C34.1291 10.8764 31.4694 10.246 29.8496 8.9561C28.4499 7.83615 27.7504 6.35634 28.1104 4.64653ZM0 0.536181C0.470031 0.196426 1.66955 0.30664 2.30957 0.306689C3.97957 0.326689 5.73012 0.27622 7.37012 0.32622C8.24987 0.356232 8.72006 0.626371 9.04004 1.2061C9.34004 1.7461 9.79996 4.557 9.95996 5.377C10.0702 5.94818 10.81 9.36701 10.75 9.58696C10.9799 9.92745 11.0503 11.417 11.2402 11.7969L15.4805 0.316454V0.336962H20.1104C19.8502 1.09721 18.7804 3.58668 18.4004 4.51665C17.2304 7.35664 16.1302 10.1967 14.9502 13.0166C14.6602 13.7166 14.3701 14.3965 14.0801 15.1065C13.9201 15.5064 13.2605 16.9757 13.2002 17.2364L8.65039 17.2061C8.35041 16.0062 7.97989 14.7863 7.66992 13.5665L5.74023 6.23638C5.54019 5.43624 4.84976 3.09638 4.75977 2.52642C3.79968 1.84647 1.82951 1.17662 0.599609 0.766649L0.110352 0.606493C0.100352 0.596493 0.0995703 0.59622 0.0595703 0.57622C0.0494814 0.566641 0.0304043 0.566458 0.0302734 0.556689C0.0202734 0.536689 0 0.536181 0 0.536181ZM46.8496 0.346728C48.0295 0.286732 49.3298 0.306221 50.5098 0.32622L50.5303 0.336962L54.0596 17.2266H50.0098C49.8998 16.5266 49.6898 15.7562 49.5498 15.0362C49.5099 14.8266 49.5298 14.7071 49.3604 14.667H43.9404C43.6604 14.727 43.1801 17.0468 42.8701 17.2168H38.3799L40.5 12.1065C41.22 10.3866 41.9097 8.68654 42.6396 6.97661C43.3596 5.28678 44.0796 3.57683 44.7695 1.877C45.2095 0.797133 45.7699 0.396807 46.8496 0.346728ZM26.2305 0.306689L23.5195 17.1963H19.1904C19.2305 16.5164 19.3902 15.7461 19.4902 15.0762L20.5098 8.72661C20.9598 5.93663 21.3901 3.11667 21.8701 0.306689H26.2305ZM47.5098 4.93657C47.0598 5.82651 46.65 7.03648 46.29 8.02641L45.1396 11.1768V11.1866H48.75C48.69 10.7166 48.5397 10.1363 48.4297 9.6563C48.3097 9.13645 48.1998 8.61658 48.0898 8.09673L47.5098 4.93657Z" fill="white"/>
</svg>
